<svg version="1.0" xmlns="http://www.w3.org/2000/svg" xmlns:xlink="http://www.w3.org/1999/xlink" width="100%"
    height="100%" viewBox="0 0 340.000000 250.000000">
    <g transform="translate(10, 100)">
        <rect fill="#333" fill-opacity="0" stroke-width="2" x="0" y="0" width="64.9181504002952"
            height="85.347870055474" class="image-rect"></rect>
        <svg x="0" y="0" width="64.9181504002952" height="85.347870055474" filtersec="colorsb1459659673"
            style="overflow: visible;">
            <svg xmlns="http://www.w3.org/2000/svg" viewBox="0 0 66 86.7699966430664">
                <path
                    d="M66 86.77H0V0h66zM19.71 9.85H9.86v67.07h9.85V9.85zM33 49.67l-9.9 9.92v13.94l9.9-9.92 9.92 9.92V59.59zM46.32 63v13.92h9.86V9.85h-9.86z"
                    fill="#ffa61f"></path>
            </svg>
        </svg>
        <g transform="translate(71, 16.036150412352377)">
            <g data-gra="path-name" fill="#333" transform="scale(1.8000000000000005)">
                <path
                    d="M14.00-17.49L23.69-17.49Q23.69-20.50 22.48-21.56Q21.27-22.63 17.66-22.63L17.66-22.63L4.31-22.63L4.31-28.77L17.66-28.77Q21.27-28.77 22.63-28.62Q23.99-28.48 25.40-28.06L25.40-28.06Q31.96-25.58 31.61-16.19L31.61-16.19L31.61 0L14.95 0Q10.46 0 8.74-0.27Q7.03-0.53 5.73-1.36L5.73-1.36Q2.24-3.72 2.24-8.51L2.24-8.51Q2.24-11.40 3.63-13.68Q5.02-15.95 7.33-16.78L7.33-16.78Q9.33-17.49 14.00-17.49L14.00-17.49ZM23.69-6.14L23.69-11.34L14.59-11.34L13.23-11.34Q11.87-11.34 11.08-10.63Q10.28-9.92 10.28-8.68L10.28-8.68Q10.28-7.33 11.25-6.73Q12.23-6.14 14.59-6.14L14.59-6.14L23.69-6.14Z"
                    transform="translate(-2.244923076923077, 29.184)"></path>
            </g>
        </g>
        <g transform="translate(127, 16.036150412352377)">
            <g data-gra="path-name" fill="#333" transform="scale(1.8000000000000005)">
                <path
                    d="M16.07-6.14L20.32-6.14L20.32-28.77L28.24-28.77L28.24-6.14L36.75-6.14L36.75-28.77L44.60-28.77L44.60 0L15.54 0Q11.58 0 9.51-0.59Q7.44-1.18 6.08-2.66L6.08-2.66Q3.49-5.49 3.49-10.46L3.49-10.46L3.49-28.77L11.34-28.77L11.34-11.70Q11.34-9.63 11.55-8.80Q11.76-7.98 12.35-7.33L12.35-7.33Q13.59-6.14 16.07-6.14L16.07-6.14Z"
                    transform="translate(-3.4855384615384613, 29.184)"></path>
            </g>
        </g>
        <g transform="translate(204, 16.036150412352377)">
            <g data-gra="path-name" fill="#333" transform="scale(1.8000000000000005)">
                <path
                    d="M17.13-29.18L17.13-29.18Q25.11-29.18 28.89-24.58L28.89-24.58Q32.37-20.38 32.37-14.00L32.37-14.00Q32.37-7.27 28.00-3.25L28.00-3.25Q23.99 0.41 17.01 0.41L17.01 0.41Q9.81 0.41 5.73-3.72L5.73-3.72Q1.95-7.44 1.95-14.59L1.95-14.59Q1.95-20.62 5.55-24.64L5.55-24.64Q9.57-29.12 17.13-29.18ZM17.19-23.16L17.19-23.16Q10.04-23.16 10.04-14.30L10.04-14.30Q10.04-10.69 11.22-8.80L11.22-8.80Q13.17-5.61 17.25-5.61L17.25-5.61Q24.28-5.61 24.28-14.41L24.28-14.41Q24.28-23.04 17.19-23.16Z"
                    transform="translate(-1.9495384615384614, 29.184)"></path>
            </g>
        </g>
        <g transform="translate(262, 16.036150412352377)">
            <g data-gra="path-name" fill="#333" transform="scale(1.8000000000000005)">
                <path d="M8.98-28.77L16.31-8.98L24.34-28.77L32.73-28.77L20.32 0L11.82 0L0.35-28.77L8.98-28.77Z"
                    transform="translate(-0.3544615384615385, 29.184)"></path>
            </g>
        </g>
    </g>
</svg>